<svg version="1.1" xmlns="http://www.w3.org/2000/svg" xmlns:xlink="http://www.w3.org/1999/xlink" width="15.668" height="15.3398">
	<g>
		<rect height="15.3398" opacity="0" width="15.668" x="0" y="0" />
		<path d="M0 7.66406C0 8.17969 0.433594 8.61328 0.949219 8.61328L6.71484 8.61328L6.71484 14.3789C6.71484 14.8828 7.14844 15.3281 7.66406 15.3281C8.17969 15.3281 8.60156 14.8828 8.60156 14.3789L8.60156 8.61328L14.3789 8.61328C14.8828 8.61328 15.3164 8.17969 15.3164 7.66406C15.3164 7.14844 14.8828 6.71484 14.3789 6.71484L8.60156 6.71484L8.60156 0.949219C8.60156 0.445312 8.17969 0 7.66406 0C7.14844 0 6.71484 0.445312 6.71484 0.949219L6.71484 6.71484L0.949219 6.71484C0.433594 6.71484 0 7.14844 0 7.66406Z" />
	</g>
</svg>
