<svg fill="currentColor" width="24" height="21" xmlns="http://www.w3.org/2000/svg" xmlns:svg="http://www.w3.org/2000/svg" version="1.1">
	<g id="svg_1">
		<rect height="21" id="svg_2" opacity="0" width="24" x="0" y="0" />
		<path d="m 3.22 23.1 l 17.73 0 c 2.15 0 3.22 -1.22 3.22 -3.64 l 0 -14.3 c 0 -2.42 -1.07 -3.64 -3.22 -3.64 l -17.73 0 c -2.14 0 -3.22 1.21 -3.22 3.64 l 0 14.3 c 0 2.43 1.08 3.64 3.22 3.64 z m 0.02 -1.89 c -1.02 0 -1.58 -0.62 -1.58 -1.84 l 0 -14.12 c 0 -1.22 0.56 -1.84 1.58 -1.84 l 17.7 0 c 1.01 0 1.59 0.62 1.59 1.84 l 0 14.12 c 0 1.22 -0.58 1.84 -1.59 1.84 l -17.7 0 z m 4.58 0.36 l 1.61 0 l 0 -18.51 l -1.61 0 l 0 18.51 z m -1.97 -13.81 c 0.31 0 0.59 -0.32 0.59 -0.66 c 0 -0.35 -0.28 -0.65 -0.59 -0.65 l -2.2 0 c -0.31 0 -0.58 0.3 -0.58 0.65 c 0 0.34 0.27 0.66 0.58 0.66 l 2.2 0 z m 0 3.03 c 0.31 0 0.59 -0.31 0.59 -0.66 c 0 -0.36 -0.28 -0.65 -0.59 -0.65 l -2.2 0 c -0.31 0 -0.58 0.29 -0.58 0.65 c 0 0.35 0.27 0.66 0.58 0.66 l 2.2 0 z m 0 3.03 c 0.31 0 0.59 -0.3 0.59 -0.65 c 0 -0.35 -0.28 -0.65 -0.59 -0.65 l -2.2 0 c -0.31 0 -0.58 0.3 -0.58 0.65 c 0 0.35 0.27 0.65 0.58 0.65 l 2.2 0 zØ" />
	</g>
</svg>
