<!-- Generator: Apple Native CoreSVG 232.5 --><!DOCTYPE svg PUBLIC "-//W3C//DTD SVG 1.1//EN" "http://www.w3.org/Graphics/SVG/1.1/DTD/svg11.dtd"[]><svg version="1.1" xmlns="http://www.w3.org/2000/svg" xmlns:xlink="http://www.w3.org/1999/xlink" width="24" height="18" viewBox="0 0 22 17"><g><rect height="17.0977" opacity="0" width="22.0898" x="0" y="0" /><path d="M0.457031 6.83203L21.3984 6.83203L21.3984 5.14453L0.457031 5.14453ZM0.457031 11.9648L21.3984 11.9648L21.3984 10.2773L0.457031 10.2773ZM10.0312 16.6406L11.7188 16.6406L11.7188 0.46875L10.0312 0.46875ZM2.98828 17.0977L18.75 17.0977C20.7539 17.0977 21.7383 16.1133 21.7383 14.1445L21.7383 2.96484C21.7383 0.996094 20.7539 0.0117188 18.75 0.0117188L2.98828 0.0117188C0.996094 0.0117188 0 0.996094 0 2.96484L0 14.1445C0 16.1133 0.996094 17.0977 2.98828 17.0977ZM3.01172 15.3984C2.16797 15.3984 1.6875 14.9414 1.6875 14.0625L1.6875 3.04688C1.6875 2.15625 2.16797 1.71094 3.01172 1.71094L18.7266 1.71094C19.5703 1.71094 20.0508 2.15625 20.0508 3.04688L20.0508 14.0625C20.0508 14.9414 19.5703 15.3984 18.7266 15.3984Z" /></g></svg>